/* XPM */
static char *_390f8f0328f4713e3974b87766caa78HxIWPltIeKxqBPSL[] = {
/* columns rows colors chars-per-pixel */
"64 64 4 1 ",
"  c None",
". c #BFA100",
"X c gold",
"o c white",
/* pixels */
"      ....................................................      ",
"      ....................................................      ",
"  ....XXXXXXXXXXXXXXXXXXXXXXXXXXXXXXXXXXXXooooooooooooXXXX....  ",
"  ....XXXXXXXXXXXXXXXXXXXXXXXXXXXXXXXXXXXXooooooooooooXXXX....  ",
"..XXXXXXXXXXXXXXXXXXXXXXXXXXXXXXXXXXXXXXXXXXooooooooooooXXXXXX..",
"..XXXXXXXXXXXXXXXXXXXXXXXXXXXXXXXXXXXXXXXXXXooooooooooooXXXXXX..",
"..XXXXXXooooooooXXXXXXXXXXXXXXXXXXXXXXXXXXXXXXooooooooooooXXXX..",
"..XXXXXXooooooooXXXXXXXXXXXXXXXXXXXXXXXXXXXXXXooooooooooooXXXX..",
"..XXXXooXXXXXXXXXXXXXXXXXXXXXXXXXXXXXXXXXXXXXXooooooooooooooXX..",
"..XXXXooXXXXXXXXXXXXXXXXXXXXXXXXXXXXXXXXXXXXXXooooooooooooooXX..",
"..XXXXXXXXXXXXXXXXXXXXXXXXXXXXXXXXXXXXXXXXXXXXXXoooooooooooooo..",
"..XXXXXXXXXXXXXXXXXXXXXXXXXXXXXXXXXXXXXXXXXXXXXXoooooooooooooo..",
"..XXXXXXXXXXXXXXXXXXXXXXXXXXXXXXXXXXXXXXXXXXXXXXXXoooooooooooo..",
"..XXXXXXXXXXXXXXXXXXXXXXXXXXXXXXXXXXXXXXXXXXXXXXXXoooooooooooo..",
"..XXXXXXXXXXXXXX..................................XXoooooooooo..",
"..XXXXXXXXXXXXXX..................................XXoooooooooo..",
"..ooXXXXXXXXXX......................................XXoooooooo..",
"..ooXXXXXXXXXX......................................XXoooooooo..",
"..ooooXXXXXXXX....XXXXXXXXXXXXXXXXXXXXXXXXXXXXXX....XXXXoooooo..",
"..ooooXXXXXXXX....XXXXXXXXXXXXXXXXXXXXXXXXXXXXXX....XXXXoooooo..",
"..ooooooXXXXXX....XXXXXXXXXXXXXXXXXXXXXXXXXXXXXX....XXXXoooooo..",
"..ooooooXXXXXX....XXXXXXXXXXXXXXXXXXXXXXXXXXXXXX....XXXXoooooo..",
"..ooooooooXXXX....XXXXXXXXXXXXXXXXXXXXXXXXXXXXXX....XXXXXXoooo..",
"..ooooooooXXXX....XXXXXXXXXXXXXXXXXXXXXXXXXXXXXX....XXXXXXoooo..",
"..oooooooooooo....XXXXXXXXXXXXXXXXXXXXXXXXXXXXXX....XXXXXXXXoo..",
"..oooooooooooo....XXXXXXXXXXXXXXXXXXXXXXXXXXXXXX....XXXXXXXXoo..",
"..oooooooooooo....XXXXXXXXXXXXXXXXXXXXXXXXXXXXXX....XXXXXXXXXX..",
"..oooooooooooo....XXXXXXXXXXXXXXXXXXXXXXXXXXXXXX....XXXXXXXXXX..",
"..XXoooooooooo....ooXXXXXXXXXXXXXXXXXXXXXXXXXXXX....XXXXXXXXXX..",
"..XXoooooooooo....ooXXXXXXXXXXXXXXXXXXXXXXXXXXXX....XXXXXXXXXX..",
"..XXXXoooooooo....ooooXXXXXXXXXXXXXXXXXXXXXXXXXX....XXXXXXXXXX..",
"..XXXXoooooooo....ooooXXXXXXXXXXXXXXXXXXXXXXXXXX....XXXXXXXXXX..",
"..XXXXoooooooo....ooooXXXXXXXXXXXXXXXXXXXXXXXXXX....XXXXXXXXXX..",
"..XXXXoooooooo....ooooXXXXXXXXXXXXXXXXXXXXXXXXXX....XXXXXXXXXX..",
"..XXXXXXoooooo....ooooooXXXXXXXXXXXXXXXXXXXXXXXX....XXXXXXXXXX..",
"..XXXXXXoooooo....ooooooXXXXXXXXXXXXXXXXXXXXXXXX....XXXXXXXXXX..",
"..XXXXXXXXoooo....ooooooooXXXXXXXXXXXXXXXXXXXXXX....XXXXXXXXXX..",
"..XXXXXXXXoooo....ooooooooXXXXXXXXXXXXXXXXXXXXXX....XXXXXXXXXX..",
"..XXXXXXXXXXoo....ooooooooooXXXXXXXXXXXXXXXXXXXX....XXXXXXXXXX..",
"..XXXXXXXXXXoo....ooooooooooXXXXXXXXXXXXXXXXXXXX....XXXXXXXXXX..",
"..XXXXXXXXXXXX....ooooooooooooXXXXXXXXXXXXXXXXXX....XXXXXXXXXX..",
"..XXXXXXXXXXXX....ooooooooooooXXXXXXXXXXXXXXXXXX....XXXXXXXXXX..",
"..XXXXXXXXXXXX....ooooooooooooooXXXXXXXXXXXXXXXX....XXXXXXXXXX..",
"..XXXXXXXXXXXX....ooooooooooooooXXXXXXXXXXXXXXXX....XXXXXXXXXX..",
"..XXXXXXXXXXXX....ooooooooooooooooXXXXXXXXXXXXXX....XXXXXXXXXX..",
"..XXXXXXXXXXXX....ooooooooooooooooXXXXXXXXXXXXXX....XXXXXXXXXX..",
"..XXXXXXXXXXXX....XXooooooooooooooXXXXXXXXXXXXXX....XXXXXXXXXX..",
"..XXXXXXXXXXXX....XXooooooooooooooXXXXXXXXXXXXXX....XXXXXXXXXX..",
"..XXXXXXXXXXXX......................................XXXXXXXXXX..",
"..XXXXXXXXXXXX......................................XXXXXXXXXX..",
"..XXXXXXXXXXXXXX..................................XXXXXXXXXXXX..",
"..XXXXXXXXXXXXXX..................................XXXXXXXXXXXX..",
"..XXXXooXXXXXXXXXXXXXXXXooooooooooooooooXXXXXXXXXXXXXXXXXXooXX..",
"..XXXXooXXXXXXXXXXXXXXXXooooooooooooooooXXXXXXXXXXXXXXXXXXooXX..",
"..XXooXXXXXXXXXXXXXXXXXXXXooooooooooooooooXXXXXXXXXXXXXXXXooXX..",
"..XXooXXXXXXXXXXXXXXXXXXXXooooooooooooooooXXXXXXXXXXXXXXXXooXX..",
"..XXXXooooXXXXXXXXXXXXXXXXXXooooooooooooooooXXXXXXXXXXXXooXXXX..",
"..XXXXooooXXXXXXXXXXXXXXXXXXooooooooooooooooXXXXXXXXXXXXooXXXX..",
"..XXXXXXXXooXXXXXXXXXXXXXXXXXXooooooooooooooooXXXXXXXXooXXXXXX..",
"..XXXXXXXXooXXXXXXXXXXXXXXXXXXooooooooooooooooXXXXXXXXooXXXXXX..",
"  ....XXXXXXXXXXXXXXXXXXXXXXXXXXXXooooooooooooooXXXXXXXXXX....  ",
"  ....XXXXXXXXXXXXXXXXXXXXXXXXXXXXooooooooooooooXXXXXXXXXX....  ",
"      ....................................................      ",
"      ....................................................      "
};
