/* XPM */
static char *a02d2313f2ca4498d50cc2be4fb34ea4NoLgUxX3bCEfb1Mu[] = {
/* columns rows colors chars-per-pixel */
"32 32 4 1 ",
"  c None",
". c #BFA100",
"X c gold",
"o c white",
/* pixels */
"   ..........................   ",
" ..XXXXXXXXXXXXXXXXXXooooooXX.. ",
".XXXXXXXXXXXXXXXXXXXXXooooooXXX.",
".XXXooooXXXXXXXXXXXXXXXooooooXX.",
".XXoXXXXXXXXXXXXXXXXXXXoooooooX.",
".XXXXXXXXXXXXXXXXXXXXXXXooooooo.",
".XXXXXXXXXXXXXXXXXXXXXXXXoooooo.",
".XXXXXXX.................Xooooo.",
".oXXXXX...................Xoooo.",
".ooXXXX..XXXXXXXXXXXXXXX..XXooo.",
".oooXXX..XXXXXXXXXXXXXXX..XXooo.",
".ooooXX..XXXXXXXXXXXXXXX..XXXoo.",
".oooooo..XXXXXXXXXXXXXXX..XXXXo.",
".oooooo..XXXXXXXXXXXXXXX..XXXXX.",
".Xooooo..oXXXXXXXXXXXXXX..XXXXX.",
".XXoooo..ooXXXXXXXXXXXXX..XXXXX.",
".XXoooo..ooXXXXXXXXXXXXX..XXXXX.",
".XXXooo..oooXXXXXXXXXXXX..XXXXX.",
".XXXXoo..ooooXXXXXXXXXXX..XXXXX.",
".XXXXXo..oooooXXXXXXXXXX..XXXXX.",
".XXXXXX..ooooooXXXXXXXXX..XXXXX.",
".XXXXXX..oooooooXXXXXXXX..XXXXX.",
".XXXXXX..ooooooooXXXXXXX..XXXXX.",
".XXXXXX..XoooooooXXXXXXX..XXXXX.",
".XXXXXX...................XXXXX.",
".XXXXXXX.................XXXXXX.",
".XXoXXXXXXXXooooooooXXXXXXXXXoX.",
".XoXXXXXXXXXXooooooooXXXXXXXXoX.",
".XXooXXXXXXXXXooooooooXXXXXXoXX.",
".XXXXoXXXXXXXXXooooooooXXXXoXXX.",
" ..XXXXXXXXXXXXXXoooooooXXXXX.. ",
"   ..........................   "
};
