/* XPM */
static char *b163ee0ddee846bed940ed920820f63dTibwEFX1m2xeJ9uR[] = {
/* columns rows colors chars-per-pixel */
"64 64 5 1 ",
"  c None",
". c #342828",
"X c #484240",
"o c #63615B",
"O c #853D14",
/* pixels */
"                                                                ",
"                                                                ",
"                                                                ",
"                                                                ",
"                                                                ",
"                                                                ",
"                                                                ",
"                                                                ",
"                                                                ",
"                                                                ",
"                                                                ",
"                                                                ",
"                                                                ",
"                          oooooooooooooo                        ",
"                  ooooooooooooooooooooooooooo                   ",
"                oooooooooooooooooooooooooooooooo                ",
"              oooooooooooooooooooooooooooooooooooo              ",
"            oooooooooooooooooooooooooooooooooooooooo            ",
"          ooooooooooooooooXXXXXXXXXXooooooooooooooooooo         ",
"        ooooooooooooXXXXXoXXXXXXXXXXoooXXXXooooooooooooo        ",
"       ooooooooooooXXXXXXXXXXXXXXXXXoooXXXXXXoooooooooooo       ",
"      ooooooooooooXXXXXXXXXXXXXXXXXXXoXXXXXXXoooooooooooo       ",
"     oooooooooXXooXXXXXXXXXXXXXXXXXXXXXXXXXXXooXXoooooooo       ",
"     oooooooXXXXXoXXXXXXXXXXXXXXXXXXXXXXXXXXXooXXXXooooooooo    ",
"    ooooooooXXXXXoXXXXXXXX.XXXXXXXXXXXXXXXXXXoXXXXXooooooooo    ",
"    ooooooooXXXXXXXXXXXXXX.XXXXXXXXXXXXXXXXXXXXXXXXoooooooooo   ",
"    oooooXoXXXXXXXXXXXXXX..XXXXXXXXXXXXXXXXXXXXXXXXooXooooooo   ",
"   ooooXXXXXXXXXXXXXXXXXX..XXXXXXXXXXXXXXXXXXXXXXXXoXXoooooooo  ",
"   ooooXXXXXXXXXXXXXXXXX...XXXXXXXXXXXXXXXXXXXXXXXXoXXXooooooo  ",
"   oooXXXXXXXXXXXXXXXXXX...XXXXXXXXXXXXXXXXXXXXXXXXXXXXXoooooo  ",
"   oooXXXXXXXXXXXXXXXXXX...XXXXXXXXXXXXXXX.XXXXXXXXXXXXXoooooo  ",
"   oooXXXXXXXXXXXXXXXXXX...XXXXXXXXXXXXXXX.XXXXXXXXXXXXXXooooo  ",
"   oooXXXXXXXXXXXXXXXXXX...XXXXXX.XXXXXXX..XXXXXXXXXXXXXXooooo  ",
"   oooXXXXXXXXXXX.XXXXXX...X........XXXXX..XXXXXXXXXXXXXXooooo  ",
"   oooXXXXXXXXXXX..XX......................XXXXXXXXXXXXXXXoooo  ",
"    ooXXXXXXXXXX...........................XXX.XXXXXXXXXXooooo  ",
"    ooXXXXXXXXXX................................XXXXXXXXXoooo   ",
"    ooXXXXXXXXX.................................XXX.XXXXXooo    ",
"     ooXXXXXXX......................................XXXXoooo    ",
"      ooXXXXX.......................................XXXoooo     ",
"       oXXX..........................................XXoooo     ",
"        ooX...........................................Xooo      ",
"         oX...........................................o         ",
"          XX........................................XX          ",
"           oXX.........OOOOOOOOOOOOOOOOO..........ooo           ",
"            XXX...OOOOOOOOOOOOOOOOOOOOOOOOOO....XXooo           ",
"             oooooOOOOOOOOOOOOOOOOOOOOOOOOOOOOooo               ",
"                oooOOOOOOOOOOOOOOOOOOOOOOOOOOoo                 ",
"                   ooooooooooooooooooooooooo                    ",
"                           oooooooooooooo                       ",
"                                                                ",
"                                                                ",
"                                                                ",
"                                                                ",
"                                                                ",
"                                                                ",
"                                                                ",
"                                                                ",
"                                                                ",
"                                                                ",
"                                                                ",
"                                                                ",
"                                                                ",
"                                                                "
};
