/* XPM */
static char *_a911b3f9847497cede6e4dca26ba8469yKFk5NMYdfh7c3N[] = {
/* columns rows colors chars-per-pixel */
"64 64 85 1 ",
"  c #010001",
". c #05040B",
"X c #08060F",
"o c #070610",
"O c #090711",
"+ c #0B0915",
"@ c #0D0B1A",
"# c #100D1F",
"$ c #110E22",
"% c #141026",
"& c #16122B",
"* c #18142E",
"= c #1A1633",
"- c #1C1836",
"; c #1C1738",
": c #1E193B",
"> c #201A3E",
", c #1F1A40",
"< c #231D43",
"1 c #241E45",
"2 c #241F47",
"3 c #261F47",
"4 c #251E48",
"5 c #251F49",
"6 c #261F4A",
"7 c #252049",
"8 c #262049",
"9 c #272149",
"0 c #27214A",
"q c #27214B",
"w c #27214C",
"e c #28214B",
"r c #28214C",
"t c #29214E",
"y c #29234F",
"u c #2A234E",
"i c #292250",
"p c #292351",
"a c #2A2250",
"s c #2B2453",
"d c #2C2453",
"f c #2B2454",
"g c #2C2554",
"h c #2C2455",
"j c #2C2557",
"k c #2D2757",
"l c #2E2757",
"z c #2D2658",
"x c #2E2759",
"c c #2E265A",
"v c #2F275C",
"b c #2F285A",
"n c #2F285C",
"m c #30275B",
"M c #30285B",
"N c #30285E",
"B c #31285E",
"V c #30295E",
"C c #31295F",
"Z c #312960",
"A c #322A61",
"S c #332B61",
"D c #322B62",
"F c #342A62",
"G c #332A64",
"H c #352B65",
"J c #342C64",
"K c #342C65",
"L c #352C66",
"P c #352D66",
"I c #352D67",
"U c #362C67",
"Y c #362D69",
"T c #372F6A",
"R c #372E6B",
"E c #382E6A",
"W c #382E6C",
"Q c #382F6C",
"! c #38306C",
"~ c #38306D",
"^ c #39306D",
"/ c #3A306F",
"( c #3C3273",
") c #3E3579",
"_ c #403579",
/* pixels */
"*=======********=******&%@. .+*55re72211<5rrririigrr5222221>>>>>",
"--;;:::-;-----;;:=-=-=**&#X  +=5ireree1<0rifigiggcggr5556251<>>>",
":::::<>>:::::::::::;---=*$.  +*2rirideee0rrfsgigggmggriidd552>;>",
"<,<<<<<<<,<,<,<<<1>:::;-*#.  .@;2ergddggirffrirggmmVMgggmddi2<>>",
"2200www0<7<70027r22>>>>-*@.   o#&>5rrggccgggdiidmVFAAMmVAAVg651>",
"0rrrssgiywww50wwrr<<>;>-*#o    .+$&->1edgffggdvvFHJJJAAHJJGVcdr6",
"rrssfggfsyyww0yfrr52>>>-*$+o......+@$$=:<rfgvvvAHEQEQJJHYJJJFVmd",
"iissssggfsssfswsir552>>-=&%$$#@O.   ..+$=<0fggZHE//(/EQHYJHQJHVV",
"irggfffbbffffsssgsee2<>>=***=*=$@..    o#-<5iivAJ//TYRYJHJY!EFAA",
"ggggscnnnncbbgscgggge2<<>>;;>>>=&$+     +*:25rgmDJJ/EREQE//((EJA",
"fgfgccnVnncbsbbbgMcgrre21<>>>>>1<=@.    .$-<55igbVVJJYJQ/(((((/E",
"ggbcbnVAZnbfbcbcMcmcgrrr66<<><>12>&O    .O&:<56isbMKJJYE//()__)/",
"ccmvnAnnbMMgggMMbcVgdiri66661>112>&.     .$-:,22ygcVAGQE!!()___)",
"AVVVAnAnccggggllnVVcgidihd662111<:&.     .@*::,,0rVVJJJ///(((___",
"JGGAAVbMbsfsgglMVVAmmdidddhh6211<;$.      @&-;:,0gVKFFJE/(((()))",
"JJJGDVbMcgffgggbVAmAmdddgdht6111<;&o      +#&*=:<rbVVVHE/(((((()",
"JJKADnnbbccbgcgmmMmmmgMggiirr5115<=+      .+$$&=:70ggVJ/((((((((",
"JJAKDAAVVnVVMMcMggmggmcgfrrr552655-+       .+@$%*-<eicJ/((((((()",
"JAGKDDVAVAAAMllggigggmmgffrr566655;@.       O@$%&=:2wgAJY//(()()",
"JJAADAAbnAnncggggiiggmggfffi555666,*+       .$$$&=;<0fgVDJY/(())",
"DDDDDDnDnVVnMgcgffffggdfgfffd552662>@.      .@$&&=-><00sVDGQ((((",
"TTDDnDnbnAnnMMccbcffdigiggggi552266>*O       O$&&=->:><ecAGQY/((",
"TTTDDnnnnnnnMVvvbcfffigfggmgd655<262=@       .@$&*----><svDYY///",
"JYDDDDnnbbbnVVAAbbcffggigvmmgrr5<<22-@       .O@$&*---:0yvDGGY//",
"DDDDZnncbfnnmZAVAnccdgdfdvvcfi6622<>%#         +@%&-::<5ycbVHRQQ",
"DDDDnncbcbmMmZAAVnbccfjdivmmvfir62<>=$.        .+%=:::<5ffmVAYEQ",
"ZDDDnnnncmmVAZHFAVbnccgidgdmvfii6632;&O         .@&;:,<5yffgAJRR",
"ZAAAZnnnMVMMAAAAAnAncvgfjiddfdfdd662;$+          .@$*:<0wwwgVVVA",
"DDDDDDDbMbVVVAAAVVVAvccffiggdvgge21;&+.           .o@*-<00erbVMV",
"DDKDKKnccbMMVVAAAnVAnvcfjdiidddw1;&#+.              .+#*-<e0gglV",
"DDDDKDnzggMMVAVVVnAVAvvcdfifjdr<;#+.                  .@$*:00ygM",
"DDDDKDZzbMMMVAAVnVvVAAZvmvdvdd5=$X                      .+%*->eg",
"VAnnbVcbbbvAAGmvnbbbnnAVAnVgs2-@.                         .O@&-0",
"vnbcbggcfcvAVmvvcbflcnnnnbbs<=@.                             O@=",
"fggggffisfnAvcggffsffclcncs>&@.                               .+",
"fffffiiwisfgcfddssffcfs0w<-#+              ..                  .",
"fsssiwww0wisggddissggs0:=&@.               ...                  ",
"fssrw00555wwirrrisggs<*@+.                 ....                 ",
"ffir5<<<<<wwe65500iw5=@.          ...            .              ",
"rrir<<<:<<20522<<0<<;$.       .     .  .        .oo..oo.        ",
"<<502<::>>21<<>>:<<-%O        ..   .   .       .++++@@@+.       ",
"*=:,>:-=-;>2<>>>:::&@.        ..      ...  ...O++++@@$%@+.      ",
"#%******=-:<<>>---=@.         ..     .......O#@@@++@$%%#@o..    ",
"+@@#$$#$%&--;:;=&&@.         ....   ..o.o...@###@+++$$$@@O..    ",
"+++++@+@@$$&&==*&@O           .    ...++o...@@#@++++@@@++O...   ",
"++@@@++@@+@@@##@+..            ..  ..+++O..o++@++++++OOooO..    ",
"+@@@@@@+OOX......                 ...OO+Oo.o++++++++.X.X++++.   ",
"+@@@@++OX.                 .     .....OOo...XOOXX++oX.XO+@@+O...",
"++@@+++o...                ..  ..  ...oo.....X.X.OOX...++@@@+..X",
"++++++o...                ...     ..XO.... .  ...XX.....++++o...",
"oOOOo... . . .             .      ........ . ..  .... ...XO.....",
". .... .                             . .  .      .      ..... . ",
"                                                                ",
"                                                                ",
"                                                                ",
"                                                                ",
"                                                                ",
"                                                                ",
"                                                                ",
"                                                                ",
"                                                                ",
"                                                                ",
"                                                                ",
"... .X . .. ... .X . .. ... .X . .. ... .X . .. ... .X . .. ... "
};
